<?xml version="1.0" encoding="UTF-8"?>
<svg version="1.1" viewBox="0 0 48 48" xmlns="http://www.w3.org/2000/svg" xmlns:xlink="http://www.w3.org/1999/xlink"><path d="m1.5 1.5v45h31v-35h-10v-10z" fill="#fff" stroke="#000" stroke-linejoin="round"/><path id="path58" d="m29 15h-24" fill="none" stroke="#000" stroke-linecap="round" stroke-linejoin="round"/><use transform="translate(0,3.5)" xlink:href="#path58"/><use transform="translate(0,7)" xlink:href="#path58"/><use transform="translate(0,10.5)" xlink:href="#path58"/><use transform="translate(0,14)" xlink:href="#path58"/><use transform="translate(0,17.5)" xlink:href="#path58"/><use transform="translate(0,21)" xlink:href="#path58"/><use transform="translate(0,24.5)" xlink:href="#path58"/><use transform="translate(0,28)" xlink:href="#path58"/><path d="m22.5 1.5v10h10z" fill="#fff" stroke="#000" stroke-linejoin="round"/><g stroke="#000" stroke-linecap="round" stroke-linejoin="round"><path d="m34 16.6-3 2 3 2.36h11.26v-4.36z" fill="#fd2679"/><path d="m34.18 23.64-3 2 3 2.36h11.26v-4.36z" fill="#fd7a10"/><path d="m34.18 37.64-3 2 3 2.36h11.26v-4.36z" fill="#3294de"/><path d="m34.18 30.64-3 2 3 2.36h11.26v-4.36z" fill="#68f66c"/></g></svg>
